<svg viewBox="0 0 275 222" xmlns="http://www.w3.org/2000/svg">
  <path fill="silver" d="M100.94 4.796C86.538 4.606 44.64 5 44.64 5c-1.728 0-4.896-.144-9.504-.432-4.608-.288-9.024-.624-13.248-1.008-3.84-.384-6.672-1.056-8.496-2.016-1.824-.96-3.216-1.44-4.176-1.44-.576 0-1.104.672-1.584 2.016-.48 1.344-.912 2.496-1.296 3.456-.192.576-.624 2.304-1.296 5.184-.672 2.88-1.392 6.048-2.16 9.504-.768 3.456-1.44 6.672-2.016 9.648C.288 32.888 0 34.76 0 35.528c0 1.728.48 2.592 1.44 2.592 1.152 0 2.112-.96 2.88-2.88.384-.96.912-2.064 1.584-3.312.672-1.248 1.776-3.12 3.312-5.616 1.152-1.728 2.496-3.168 4.032-4.32 1.536-1.152 3.456-2.064 5.76-2.736 2.304-.672 5.04-1.2 8.208-1.584 3.168-.384 6.96-.576 11.376-.576l42.624-.576v121.824c0 13.824-.048 26.16-.144 37.008-.096 10.848-.528 19.344-1.296 25.488-.576 4.224-1.392 7.776-2.448 10.656-1.056 2.88-3.024 4.608-5.904 5.184-1.344.384-2.784.672-4.32.864-1.536.192-2.976.288-4.32.288-1.536 0-2.304.576-2.304 1.728 0 1.536 1.536 2.304 4.608 2.304 2.112 0 4.704-.048 7.776-.144 3.072-.096 6.048-.192 8.928-.288 2.88-.096 5.424-.192 7.632-.288 2.208-.096 3.504-.144 3.888-.144.384 0 1.68.048 3.888.144 2.208.096 4.992.192 8.352.288 3.36.096 7.056.192 11.088.288 4.032.096 8.064.144 12.096.144 3.072 0 4.608-.768 4.608-2.304 0-1.152-.768-1.728-2.304-1.728-1.344 0-3.312-.096-5.904-.288-2.592-.192-4.944-.48-7.056-.864-4.416-.576-7.296-2.304-8.64-5.184-1.344-2.88-2.208-6.432-2.592-10.656-.768-6.144-1.2-14.64-1.296-25.488-.096-10.848-.144-23.184-.144-37.008V18.528l.042.008c0-1.728.768-2.88 2.304-3.456 1.536-.384 4.032-.768 7.488-1.152 3.456-.384 7.392-.576 11.808-.576 15.552 0 27.744 5.088 36.576 15.264 8.832 10.176 13.248 24.288 13.248 42.336 0 10.944-1.68 20.208-5.04 27.792-3.36 7.584-7.536 13.104-12.528 16.56-3.264 2.304-6.816 3.792-10.656 4.464-3.84.672-7.488 1.008-10.944 1.008-5.705 0-11.216-.35-16.532-1.05v9.636l21.042.342c1.344 0 2.592.576 3.744 1.728 1.344 1.92 3.216 4.464 5.616 7.632 2.4 3.168 4.992 6.672 7.776 10.512 2.784 3.84 5.712 7.872 8.784 12.096 3.072 4.224 6.144 8.352 9.216 12.384 8.256 10.944 15.264 19.92 21.024 26.928 5.76 7.008 11.712 12.144 17.856 15.408 3.648 2.112 7.68 3.552 12.096 4.32 4.416.768 10.656 1.152 18.72 1.152h20.448c2.688 0 4.512-.144 5.472-.432.96-.288 1.44-.912 1.44-1.872 0-1.152-.864-1.728-2.592-1.728-.96 0-2.4-.048-4.32-.144-1.92-.096-4.224-.336-6.912-.72-3.648-.576-8.448-2.112-14.4-4.608-5.952-2.496-12.864-7.872-20.736-16.128-8.448-9.024-17.568-19.776-27.36-32.256-9.792-12.48-20.64-26.304-32.544-41.472 12.864-11.904 21.888-23.28 27.072-34.128 5.184-10.848 7.776-21.648 7.776-32.4 0-4.992-.72-9.6-2.16-13.824-1.44-4.224-3.168-7.968-5.184-11.232-2.016-3.264-4.176-6.096-6.48-8.496-2.304-2.4-4.32-4.272-6.048-5.616-7.68-5.568-16.08-9.072-25.2-10.512-9.12-1.44-18.288-2.16-27.504-2.16-2.304 0-5.184.048-8.64.144-3.456.096-6.96.192-10.512.288-2.816.076-5.39.152-7.724.228z" fill-rule="evenodd"/>
</svg>
